<?xml version="1.0" standalone="no"?>
<!DOCTYPE svg PUBLIC "-//W3C//DTD SVG 20010904//EN"
 "http://www.w3.org/TR/2001/REC-SVG-20010904/DTD/svg10.dtd">
<svg version="1.0" xmlns="http://www.w3.org/2000/svg"
 width="260.000000pt" height="260.000000pt" viewBox="0 0 260.000000 260.000000"
 preserveAspectRatio="xMidYMid meet">
<metadata>
Created by potrace 1.11, written by Peter Selinger 2001-2013
</metadata>
<g transform="translate(0.000000,260.000000) scale(0.100000,-0.100000)"
fill="#000000" stroke="none">
<path d="M1133 2100 c-33 -9 -25 -30 12 -30 47 0 101 -23 115 -49 8 -15 10
-202 8 -664 -3 -629 -3 -643 -24 -687 -30 -63 -57 -85 -108 -85 -34 0 -50 7
-80 33 -20 17 -42 32 -49 33 -7 0 -19 2 -28 4 -28 5 -79 -23 -89 -50 -14 -37
13 -69 74 -89 68 -23 126 -20 191 8 80 36 120 70 168 145 99 150 100 155 102
791 1 585 1 576 52 599 13 6 35 11 48 11 36 0 33 30 -2 31 -142 3 -375 3 -390
-1z"/>
</g>
</svg>
