<?xml version="1.0" standalone="no"?>
<!DOCTYPE svg PUBLIC "-//W3C//DTD SVG 20010904//EN"
 "http://www.w3.org/TR/2001/REC-SVG-20010904/DTD/svg10.dtd">
<svg version="1.0" xmlns="http://www.w3.org/2000/svg"
 width="700.000000pt" height="700.000000pt" viewBox="0 0 700.000000 700.000000"
 preserveAspectRatio="xMidYMid meet">
<metadata>
Created by potrace 1.11, written by Peter Selinger 2001-2013
</metadata>
<g transform="translate(0.000000,700.000000) scale(0.100000,-0.100000)"
fill="#000000" stroke="none">
<path d="M3054 5651 c-43 -11 -54 -19 -54 -41 0 -23 18 -29 105 -40 139 -16
239 -61 282 -127 17 -26 18 -102 21 -1403 3 -1411 -6 -2049 -31 -2150 -18 -75
-81 -192 -129 -240 -57 -56 -109 -73 -210 -68 -90 5 -101 9 -203 89 -93 73
-131 89 -202 89 -96 0 -192 -51 -229 -123 -22 -41 -13 -110 17 -144 106 -115
367 -173 559 -124 156 39 354 152 445 254 106 117 275 387 315 502 79 227 86
369 100 2105 10 1090 13 1169 54 1249 22 41 94 76 190 91 81 13 86 15 86 39 0
46 -3 46 -559 48 -289 1 -540 -2 -557 -6z"/>
</g>
</svg>
